# xmcd CD database file
#
# Track frame offsets:
#	150
#	12319
#	29009
#	46206
#	57783
#	70707
#	84864
#	102321
#	117291
#	135455
#	154125
#	166294
#	182984
#	200181
#	211758
#	224682
#	238839
#	256296
#	271266
#	289430
#	308100
#
# Disc length: 4260 seconds
#
# Revision: 0
# Processed by: cddbd v1.4PL0 Copyright (c) Steve Scherf et al.
# Submitted via: CDex 1.50
#
DISCID=3910a215
DTITLE=Travis Tritt - It's All About To Change  ~Zetroc Tunes Edition~
DYEAR=2003
DGENRE=Country
TTITLE0=The Whisky An't Workin Anymore
TTITLE1=Don't Give Your Heart To A Rambler
TTITLE2=Anymore
TTITLE3=Here's A Quarter Call Someone Who Cares
TTITLE4=Bible Belt
TTITLE5=It's All About To Change
TTITLE6=Nothing Short Of Dying
TTITLE7=If Hell Had A Jukebox
TTITLE8=Someone For Me
TTITLE9=Homesick
TTITLE10=The Whisky An't Workin Anymore
TTITLE11=Don't Give Your Heart To A Rambler
TTITLE12=Anymore
TTITLE13=Here's A Quarter Call Someone Who Cares
TTITLE14=Bible Belt
TTITLE15=It's All About To Change
TTITLE16=Nothing Short Of Dying
TTITLE17=If Hell Had A Jukebox
TTITLE18=Someone For Me
TTITLE19=Homesick
TTITLE20=Here's A Quarter Call Someone Who Cares
EXTD=YEAR: 2003
EXTT0=
EXTT1=
EXTT2=
EXTT3=
EXTT4=
EXTT5=
EXTT6=
EXTT7=
EXTT8=
EXTT9=
EXTT10=
EXTT11=
EXTT12=
EXTT13=
EXTT14=
EXTT15=
EXTT16=
EXTT17=
EXTT18=
EXTT19=
EXTT20=
PLAYORDER=
